<svg xmlns="http://www.w3.org/2000/svg" viewBox="0 0 100 100"><style type="text/css">  
	.st0{fill:#FFFFFF;}
	.st1{fill:#0BBBEF;}
</style><circle cx="50" cy="50" r="50"/><path class="st0" d="M17.8 72.4v-49c0-2.1 1.7-3.8 3.8-3.8 2.2 0 3.9 1.7 3.9 3.8v49c0 2.1-1.7 3.9-3.9 3.9C19.5 76.3 17.8 74.5 17.8 72.4zM38.8 41.6l-8.5-8.5c-1.4-1.4-1.4-3.6 0-4.9 1.4-1.4 3.6-1.4 4.9 0l8.5 8.4c1.4 1.4 1.4 3.6 0 4.9 -0.6 0.7-1.5 1-2.4 1C40.3 42.6 39.4 42.2 38.8 41.6zM47.3 50.7c-0.7-0.7-1.1-1.7-1.1-2.8 0-1 0.4-1.9 1.1-2.7 0.7-0.7 1.7-1.1 2.8-1.1 1 0 2 0.4 2.7 1.1 0.7 0.7 1.1 1.7 1.1 2.7 0 1.1-0.4 2-1.1 2.8C52 51.3 51 51.7 50 51.7 49 51.7 48 51.3 47.3 50.7zM56.4 41.6c-1.3-1.4-1.3-3.6 0-4.9l8.5-8.4c1.4-1.4 3.5-1.4 4.9 0 1.4 1.3 1.4 3.5 0 4.9l-8.5 8.5c-0.7 0.7-1.5 1-2.4 1C57.9 42.6 57 42.2 56.4 41.6zM74.4 72.4v-49c0-2.1 1.7-3.8 3.9-3.8 2.1 0 3.8 1.7 3.8 3.8v49c0 2.1-1.7 3.9-3.8 3.9C76.1 76.3 74.4 74.5 74.4 72.4z"/><path class="st1" d="M30.2 67.7c-1.4-1.4-1.4-3.6 0-4.9l8.5-8.5c1.3-1.4 3.5-1.4 4.9 0 1.4 1.3 1.4 3.5 0 4.9l-8.5 8.5c-0.7 0.6-1.5 1-2.4 1C31.8 68.7 30.9 68.4 30.2 67.7z"/><path class="st1" d="M32.7 51.4c-1.9 0-3.4-1.6-3.4-3.5 0-1.9 1.5-3.4 3.4-3.4h4.9c1.9 0 3.4 1.5 3.4 3.4 0 1.9-1.5 3.5-3.4 3.5H32.7z"/><path class="st1" d="M46.5 35.5V23.4c0-1.9 1.5-3.4 3.5-3.4 1.9 0 3.4 1.5 3.4 3.4v12.1c0 1.9-1.5 3.4-3.4 3.4C48.1 38.9 46.5 37.4 46.5 35.5z"/><path class="st1" d="M46.5 72.4v-12c0-1.9 1.5-3.5 3.5-3.5 1.9 0 3.4 1.5 3.4 3.5v12c0 2-1.5 3.5-3.4 3.5C48.1 75.9 46.5 74.4 46.5 72.4z"/><path class="st1" d="M64.9 67.7l-8.5-8.5c-1.3-1.4-1.3-3.6 0-4.9 1.4-1.4 3.6-1.4 4.9 0l8.5 8.5c1.4 1.3 1.4 3.5 0 4.9 -0.6 0.6-1.5 1-2.4 1C66.4 68.7 65.5 68.4 64.9 67.7z"/><path class="st1" d="M62.4 51.4c-1.9 0-3.4-1.6-3.4-3.5 0-1.9 1.5-3.4 3.4-3.4h4.9c1.9 0 3.4 1.5 3.4 3.4 0 1.9-1.5 3.5-3.4 3.5H62.4z"/></svg>