<svg xmlns="http://www.w3.org/2000/svg" viewBox="0 0 140 140"><style type="text/css">  
	.st0{fill-rule:evenodd;clip-rule:evenodd;}
	.st1{fill:#FFFFFF;}
</style><path class="st0" d="M70.1 0c38.7 0 70 31.3 70 70s-31.3 70-70 70 -70-31.3-70-70S31.4 0 70.1 0z"/><path class="st1" d="M43.1 44.5c0-2.4-1.9-4.4-4.4-4.4h-3.6c-0.6 0-1.1 0.5-1.1 1.1v12c0 0.6 0.5 1.1 1.1 1.1 0.6 0 1.1-0.5 1.1-1.1v-4.4h2.5C41.2 48.9 43.1 46.9 43.1 44.5zM36.3 42.4h2.5c1.2 0 2.1 0.9 2.1 2.1 0 1.1-0.9 2.1-2.1 2.1h-2.5V42.4zM46.9 54.4L46.9 54.4C47 54.4 47 54.4 46.9 54.4h6.6c0.6 0 1.1-0.5 1.1-1.1 0-0.6-0.5-1.1-1.1-1.1h-5.5v-3.7h4.7c0.6 0 1.1-0.5 1.1-1.1 0-0.6-0.5-1.1-1.1-1.1h-4.7v-3.7h5.5c0.6 0 1.1-0.5 1.1-1.1s-0.5-1.1-1.1-1.1H47c0 0 0 0 0 0h0c-0.6 0-1.1 0.5-1.1 1.1v12C45.8 53.9 46.3 54.4 46.9 54.4zM64.2 54.4c1.9 0 3.7-0.9 4.8-2.2 1.3-1.3 2-3.1 2-5.1s-0.8-3.8-2-5.1c-1.2-1.3-3-2.2-4.8-2.2 -1.9 0-3.7 0.8-5 2.2 -1.3 1.3-2 3.1-2 5.1s0.8 3.8 2 5.1C60.5 53.5 62.3 54.4 64.2 54.4zM60.9 43.5c0.9-0.9 2-1.4 3.3-1.4 1.2 0 2.4 0.5 3.2 1.4 0.8 0.9 1.4 2.2 1.4 3.6s-0.5 2.7-1.4 3.5c-0.9 0.9-2 1.5-3.2 1.5 -1.3 0-2.4-0.5-3.3-1.5 -0.9-0.9-1.4-2.2-1.4-3.5S60.1 44.4 60.9 43.5zM76.2 54.4c0.6 0 1.1-0.5 1.1-1.1v-4.4h2.5c2.4 0 4.4-1.9 4.4-4.3 0-2.4-1.9-4.4-4.4-4.4h-3.6c-0.6 0-1.1 0.5-1.1 1.1v12C75.1 53.9 75.6 54.4 76.2 54.4zM77.4 42.4h2.5c1.2 0 2.1 0.9 2.1 2.1 0 1.1-0.9 2.1-2.1 2.1h-2.5V42.4zM88.1 54.4C88.1 54.4 88.1 54.4 88.1 54.4 88.1 54.4 88.1 54.4 88.1 54.4h6.6c0.6 0 1.1-0.5 1.1-1.1 0-0.6-0.5-1.1-1.1-1.1h-5.5V41.3c0-0.6-0.5-1.1-1.1-1.1s-1.1 0.5-1.1 1.1v12C86.9 53.9 87.4 54.4 88.1 54.4zM106.1 42.4c0.6 0 1.1-0.5 1.1-1.1s-0.5-1.1-1.1-1.1h-6.6c0 0 0 0 0 0h0c-0.6 0-1.1 0.5-1.1 1.1v12c0 0.6 0.5 1.1 1.1 1.1l0 0c0 0 0 0 0 0h6.6c0.6 0 1.1-0.5 1.1-1.1 0-0.6-0.5-1.1-1.1-1.1h-5.5v-3.7h4.7c0.6 0 1.1-0.5 1.1-1.1 0-0.6-0.5-1.1-1.1-1.1h-4.7v-3.7H106.1zM54.4 76.6c0 0.6 0.5 1.1 1.1 1.1 0.6 0 1.1-0.5 1.1-1.1v-12c0-0.6-0.5-1.1-1.1-1.1 0 0 0 0 0 0 -0.4 0-0.7 0.2-0.9 0.5l-4 5.6 -4-5.6c-0.2-0.3-0.6-0.5-0.9-0.5 0 0 0 0-0.1 0 -0.6 0-1.1 0.5-1.1 1.1v12c0 0.6 0.5 1.1 1.1 1.1 0.6 0 1.1-0.5 1.1-1.1V68l2.9 4.1c0.2 0.3 0.6 0.5 0.9 0.5h0c0.4 0 0.7-0.2 0.9-0.5l2.9-4.1V76.6zM65 63.5c-0.4 0-0.9 0.3-1.1 0.7l-4.5 11.9c-0.2 0.6 0.1 1.2 0.7 1.5 0.1 0 0.2 0.1 0.4 0.1 0.4 0 0.9-0.3 1.1-0.7l1-2.6h4.9l1 2.6c0.2 0.4 0.6 0.7 1 0.7 0.1 0 0.3 0 0.4-0.1 0.6-0.2 0.9-0.9 0.7-1.5l-4.5-11.9C65.9 63.8 65.5 63.5 65 63.5zM63.4 72.1l1.6-4.4 1.6 4.4H63.4zM82.9 77.7c0.3 0 0.5-0.1 0.7-0.3 0.5-0.4 0.6-1.1 0.2-1.6L79.3 70l4.5-4.4c0.4-0.4 0.4-1.2 0-1.6 -0.4-0.4-1.1-0.4-1.6 0l-6.6 6.6v-5.8c0-0.6-0.5-1.1-1.1-1.1 -0.6 0-1.1 0.5-1.1 1.1v11.9c0 0.6 0.5 1.1 1.1 1.1 0.6 0 1.1-0.5 1.1-1.1v-2.9l2.1-2.2 4.4 5.7C82.3 77.5 82.6 77.7 82.9 77.7zM89.1 63.5C89 63.5 89 63.5 89.1 63.5L89.1 63.5c-0.7 0-1.2 0.5-1.2 1.1v12c0 0.6 0.5 1.1 1.1 1.1l0 0c0 0 0 0 0 0h6.6c0.6 0 1.1-0.5 1.1-1.1 0-0.6-0.5-1.1-1.1-1.1h-5.5v-3.7h4.7c0.6 0 1.1-0.5 1.1-1.1 0-0.6-0.5-1.1-1.1-1.1h-4.7v-3.7h5.5c0.6 0 1.1-0.5 1.1-1.1 0-0.6-0.5-1.1-1.1-1.1H89.1zM30.6 86.8C30.6 86.8 30.6 86.8 30.6 86.8c-0.4 0-0.7 0.2-0.9 0.5l-4 5.6 -4-5.6c-0.2-0.3-0.6-0.5-0.9-0.5 0 0 0 0-0.1 0 -0.6 0-1.1 0.5-1.1 1.1v12c0 0.6 0.5 1.1 1.1 1.1 0.6 0 1.1-0.5 1.1-1.1v-8.5l2.9 4.1c0.2 0.3 0.6 0.5 0.9 0.5h0c0.4 0 0.7-0.2 0.9-0.5l2.9-4.1v8.5c0 0.6 0.5 1.1 1.1 1.1 0.6 0 1.1-0.5 1.1-1.1v-12C31.7 87.3 31.2 86.8 30.6 86.8zM47.3 86.8c-0.6 0-1.1 0.5-1.1 1.1v7.2c0 2-1.6 3.6-3.6 3.6 -2 0-3.6-1.6-3.6-3.6v-7.2c0-0.6-0.5-1.1-1.1-1.1 -0.6 0-1.1 0.5-1.1 1.1v7.2c0 3.2 2.6 5.9 5.9 5.9 3.2 0 5.9-2.6 5.9-5.9v-7.2C48.4 87.3 47.9 86.8 47.3 86.8zM61 93.3c-0.8-0.4-1.8-0.6-2.8-0.9h0c-1.1-0.2-2-0.5-2.5-0.9 -0.3-0.2-0.4-0.4-0.5-0.5C55 90.8 55 90.7 55 90.4c0-0.4 0.2-0.9 0.8-1.3 0.5-0.4 1.4-0.7 2.3-0.7 1.2 0 2.2 0.6 3.3 1.3 0.5 0.3 1.1 0.2 1.4-0.3 0.3-0.5 0.2-1.1-0.3-1.4 -1-0.7-2.5-1.6-4.4-1.6 -1.3 0-2.6 0.4-3.5 1.1 -0.9 0.7-1.6 1.7-1.6 3 0 0.6 0.2 1.2 0.5 1.7 0.4 0.7 1.1 1.2 1.9 1.6 0.8 0.4 1.7 0.6 2.6 0.8h0c1.2 0.2 2.2 0.6 2.8 1 0.3 0.2 0.5 0.4 0.6 0.6 0.1 0.2 0.2 0.4 0.2 0.6 0 0.5-0.3 1-0.9 1.5 -0.6 0.4-1.5 0.8-2.5 0.8 -1.4 0-3-0.8-3.9-1.6 -0.4-0.4-1.1-0.3-1.5 0.1 -0.3 0.4-0.3 1.1 0.2 1.5 1.2 0.9 3 2 5.2 2 1.4 0 2.8-0.4 3.8-1.2 1-0.7 1.7-1.8 1.7-3.1 0-0.6-0.2-1.2-0.5-1.7C62.6 94.2 61.9 93.7 61 93.3zM74.4 89c0.6 0 1.1-0.5 1.1-1.1s-0.5-1.1-1.1-1.1h-6.6c0 0 0 0 0 0h0c-0.6 0-1.1 0.5-1.1 1.1v12c0 0.6 0.5 1.1 1.1 1.1l0 0c0 0 0 0 0 0h6.6c0.6 0 1.1-0.5 1.1-1.1 0-0.6-0.5-1.1-1.1-1.1h-5.5V95h4.7c0.6 0 1.1-0.5 1.1-1.1 0-0.6-0.5-1.1-1.1-1.1h-4.7V89H74.4zM89.4 86.8c-0.6 0-1.1 0.5-1.1 1.1v7.2c0 2-1.6 3.6-3.6 3.6 -2 0-3.6-1.6-3.6-3.6v-7.2c0-0.6-0.5-1.1-1.1-1.1 -0.6 0-1.1 0.5-1.1 1.1v7.2c0 3.2 2.6 5.9 5.9 5.9 3.2 0 5.9-2.6 5.9-5.9v-7.2C90.5 87.3 90 86.8 89.4 86.8zM105.3 86.8C105.3 86.8 105.3 86.8 105.3 86.8c-0.4 0-0.7 0.2-0.9 0.5l-4 5.6 -4-5.6c-0.2-0.3-0.6-0.5-0.9-0.5 0 0 0 0-0.1 0 -0.6 0-1.1 0.5-1.1 1.1v12c0 0.6 0.5 1.1 1.1 1.1 0.6 0 1.1-0.5 1.1-1.1v-8.5l2.9 4.1c0.2 0.3 0.6 0.5 0.9 0.5h0c0.4 0 0.7-0.2 0.9-0.5l2.9-4.1v8.5c0 0.6 0.5 1.1 1.1 1.1 0.6 0 1.1-0.5 1.1-1.1v-12C106.4 87.3 105.9 86.8 105.3 86.8zM121.3 94.9c-0.5-0.8-1.2-1.3-2-1.7 -0.8-0.4-1.8-0.6-2.8-0.9h0c-1.1-0.2-2-0.5-2.5-0.9 -0.3-0.2-0.4-0.4-0.5-0.5 -0.1-0.2-0.1-0.3-0.1-0.6 0-0.4 0.2-0.9 0.8-1.3 0.5-0.4 1.4-0.7 2.3-0.7 1.2 0 2.2 0.6 3.3 1.3 0.5 0.3 1.1 0.2 1.4-0.3 0.3-0.5 0.2-1.1-0.3-1.4 -1-0.7-2.5-1.6-4.4-1.6 -1.3 0-2.6 0.4-3.5 1.1 -0.9 0.7-1.6 1.7-1.6 3 0 0.6 0.2 1.2 0.5 1.7 0.4 0.7 1.1 1.2 1.9 1.6 0.8 0.4 1.7 0.6 2.6 0.8h0c1.2 0.2 2.2 0.6 2.8 1 0.3 0.2 0.5 0.4 0.6 0.6 0.1 0.2 0.2 0.4 0.2 0.6 0 0.5-0.3 1-0.9 1.5 -0.6 0.4-1.5 0.8-2.5 0.8 -1.4 0-3-0.8-3.9-1.6 -0.4-0.4-1.1-0.3-1.5 0.1 -0.3 0.4-0.3 1.1 0.2 1.5 1.2 0.9 3 2 5.2 2 1.4 0 2.8-0.4 3.8-1.2 1-0.7 1.7-1.8 1.7-3.1C121.8 96 121.6 95.4 121.3 94.9z"/></svg>