<svg xmlns="http://www.w3.org/2000/svg" width="163" height="168"><path d="M144.8 23.7L160.4 108.4 103.2 55.5 144.8 23.7ZM54.2 3L143 22.1 101.6 53.8 54.2 3ZM2.3 57.2C2.2 57.1 2.1 57 2 56.9L49.2 5.8 12.9 75.8 2.3 57.2ZM15.5 135L1.9 61.2 11.9 78.6 15.5 135ZM80 146.6L80.3 146.8 105.7 165.5 22.5 146 78.9 146.6 80 146.6ZM109.4 165.3C109.3 165.3 109.3 165.2 109.3 165.2L82.7 145.7 158.8 112.4 109.4 165.3ZM158.7 110L82.1 143.5 102.1 57.6 158.7 110ZM18.3 143.6L14.4 81.3 77.6 144.3 18.3 143.6ZM52.5 4.6L99.3 54.8 15.2 76.5 52.5 4.6ZM79.8 143.2L15.3 78.9 99.9 57 79.8 143.2Z" fill="rgb(255, 237, 0)"/></svg>