<svg xmlns="http://www.w3.org/2000/svg" viewBox="0 0 100 40.4"><style type="text/css">  
	.st0{fill:#FAE917;}
</style><path class="st0" d="M21.3 22.3l1.7 5h0.7l-0.6-3 4 3h0.4l-4.4-3.2 9.3-3.9 -0.6 7.1h0.3l0.6-7.1 6.9 4.7 0 0.1 0.3 0.2 -0.4 0.3 0 0.1 -2.8 1.8h0.5l1.9-1.2 -0.8 1.2h0.5l1.3-1.8 0.4-0.3L40.2 25 37 15.6l0 0c0.1-0.1 0.1-0.1 0-0.2 -0.1-0.1-0.1 0-0.2 0l-0.1 0.1 -10.4-0.7L26 14.6l-0.2 0.6 -4.5 6.6c0 0-0.1 0-0.2 0 -0.1 0-0.1 0.1 0 0.2L21.3 22.3zM23.2 26.3l-0.9-2.8 0.5 0.6L23.2 26.3zM39.4 24.5l-6.6-4.5 3.7-3.8L39.4 24.5zM36.2 16L36.2 16c0.1-0.1 0.2-0.1 0.2-0.1l-3.8 3.9L27 15.4 36.2 16zM25.9 15.8l0.1-0.1 0.2-0.6 0.3 0.2 0.1 0 5.8 4.6 -9.2 3.9L25.9 15.8zM21.6 21.8c0 0 0.1 0 0.1 0l3.5-5.1 -2.5 7.1 -0.8-1 -0.2-0.5L21.6 22C21.6 21.9 21.6 21.8 21.6 21.8z"/><path class="st0" d="M72.7 13.2c-0.2 0.2-0.4 0.5-0.6 0.7l-5.9 6c-1.7 1.8-1.5 4.8 0.5 6.8 2 2 5.1 2.2 6.8 0.4l5.9-6c0.3-0.2 0.5-0.4 0.7-0.6 0.5-0.5 0.8-1.1 1-1.7 0.5-1.7-0.1-3.8-1.5-5.2C77.6 11.5 74.4 11.4 72.7 13.2zM80.4 19.7c-0.2 0.2-0.4 0.4-0.6 0.6 -1.7 1.7-4.2 1.5-6.2-0.5 -1.4-1.4-2-3.1-1.5-4.8 0.2-0.6 0.3-1.2 0.7-1.7 0.2-0.2 0.3-0.3 0.5-0.4 1.7-1.1 4.2-0.7 5.9 1 1.4 1.4 2 3.3 1.5 5C80.6 19.2 80.5 19.4 80.4 19.7zM66.9 26.3c-1.9-1.9-2-4.5-0.4-6.2l5.3-5.7c-0.1 0.1-0.1 0.3-0.2 0.5 -0.5 1.7 0.1 3.8 1.5 5.2 1.6 1.5 3.7 2 5.5 1.4l-5.5 5.4C71.5 28.5 68.9 28.2 66.9 26.3z"/><path class="st0" d="M58.1 9l-4.7-4.7 -0.3-0.1L53 4.1l-5.3 4.1 -7.8 6.7 -0.4 0.3 1.2 0.5 6 3.1 7.7 2 1.4 0.5 -0.1-0.6L58.1 9zM52.9 19.8l-10.4-3.9 -1.3-0.7 -0.9-0.3L52.9 4.7l2.6 15.9 -1.2-0.5L52.9 19.8zM46.9 18.3L44.4 17l5.8 2.2L46.9 18.3zM53.2 5l4.4 4.3 -1.9 10.4L53.2 5z"/><rect x="7.5" y="27.3" class="st0" width="85" height="4"/></svg>